PathFileType	4	(X/Y/Z)	Patient4_TMGait_0pt3_01_right_03.trc.trc
DataRate	CameraRate	NumFrames	NumMarkers	Units	OrigDataRate	OrigDataStartFrame	OrigNumFrames
52.238805970149	52.238805970149	5	33	mm	52.238805970149	106	       141
Frame#	Time	Sacral			L.Shoulder			Chest			R.Shoulder			Neck			R.ASIS			L.ASIS			R.Thigh.Superior			R.Thigh.Lateral			R.Thigh.Inferior			R.Patella			L.Thigh.Superior			L.Thigh.Lateral			L.Thigh.Inferior			L.Patella			L.Shank.Superior			L.Shank.Lateral			L.Shank.Inferior			R.Shank.Superior			R.Shank.Lateral			R.Shank.Inferior			R.Heel			R.Midfoot.Superior			R.Midfoot.Lateral			R.Toe			L.Heel			L.Midfoot.Lateral			L.Midfoot.Superior			L.Toe			L.Elbow			L.Wrist			R.Elbow			R.Wrist			
		X1	Y1	Z1	X2	Y2	Z2	X3	Y3	Z3	X4	Y4	Z4	X5	Y5	Z5	X6	Y6	Z6	X7	Y7	Z7	X8	Y8	Z8	X9	Y9	Z9	X10	Y10	Z10	X11	Y11	Z11	X12	Y12	Z12	X13	Y13	Z13	X14	Y14	Z14	X15	Y15	Z15	X16	Y16	Z16	X17	Y17	Z17	X18	Y18	Z18	X19	Y19	Z19	X20	Y20	Z20	X21	Y21	Z21	X22	Y22	Z22	X23	Y23	Z23	X24	Y24	Z24	X25	Y25	Z25	X26	Y26	Z26	X27	Y27	Z27	X28	Y28	Z28	X29	Y29	Z29	X30	Y30	Z30	X31	Y31	Z31	X32	Y32	Z32	X33	Y33	Z33	

106	5.980000000000	797.655473864418	994.886054786341	421.145624390452	983.341130109690	1419.323321545714	228.357813031583	1079.059064624631	1357.242008151258	395.831691937478	988.226894270450	1436.529873859036	563.054077353512	967.692551558331	1487.657823643863	382.146242965461	1024.762430451243	939.903917900128	547.251159968596	1021.489880706258	951.885439521177	272.694609362609	1100.188839414770	757.359632411105	525.233946718601	1048.518727351814	639.991660299941	596.178128855280	1137.394746104699	593.918979327564	519.386166984394	1146.731925671634	481.289830104970	547.555569832883	1074.495026189831	741.151284860779	321.611341575488	990.945725826832	617.955989074380	268.075247389298	1068.910346692485	545.014355165460	344.472412710030	1067.875301469386	472.276438015543	358.248694116086	1027.692829839389	400.372561452546	351.232099756477	927.479958143038	297.626501963260	297.224901343957	951.283973741850	184.202617132428	375.665203698395	1065.821314704519	411.496689639416	554.635155807095	936.592993870758	379.705361671071	603.444351955321	925.091815486473	266.708276240247	562.459439454428	728.094283775019	210.195383798964	512.819559146794	885.366293144836	147.836690862484	584.338401144564	772.406359803329	157.765394145012	600.032148121546	936.563679694406	35.819818526564	631.989140919413	801.769997205832	39.729277263101	410.365079172887	879.075094156506	36.633190339145	333.032384938006	962.967832279575	95.348182041670	364.892083894694	1091.080009217874	40.278398709466	339.449907275205	1065.154149763848	1081.636107320304	106.733732213148	1271.338367333771	920.947444612874	108.792701140725	983.251960517430	1087.980239235571	691.993246521921	1090.476907706452	849.183161226430	700.299891056780	
107	5.999142857143	797.052182079064	995.696927800603	418.826111420952	986.169496770381	1420.629139195436	228.915194247126	1079.159564499410	1357.849611798812	397.674721762439	985.794446258524	1436.465367299625	563.790432723264	968.313490861859	1488.448980706187	382.854088859411	1023.093937392939	941.056936802794	547.056921558501	1022.031980123330	952.375534189958	272.422211367960	1100.599820984175	760.453072779193	524.205128517339	1051.058540921922	642.605331373746	595.567392934107	1139.997594369248	597.676115190589	518.324479073633	1151.924701680520	485.991265246112	546.768131680628	1072.872192699114	740.453568390981	321.072149675295	987.624520424705	618.076072553239	267.240543452155	1064.566334053947	544.376416249904	343.721100600613	1062.815962647880	471.865999033098	357.596452722241	1022.494553424927	400.313773275853	350.569436081502	922.171953421773	297.694229850881	296.657354578452	945.697658046467	184.298348441670	375.291178008460	1073.750911114984	414.029012036032	554.423475152520	946.297636107905	377.062901980819	603.552488295055	939.579507641806	263.660601254532	562.823283081522	745.244280749910	196.761834641250	513.996730320773	905.745379857691	144.675577930125	585.193288866172	792.736941347812	147.689289343878	601.230197702555	963.393601473180	36.368188989557	632.992542838588	796.005764832218	39.925591491459	410.276616023978	873.341915818149	36.672557175922	333.002846865434	957.273558218879	95.353211461534	364.723195719592	1085.360629286778	40.157054339633	339.375382213021	1072.048669971237	1085.363042450946	105.173340700870	1285.672034557790	934.304758509287	109.381452448227	964.075621621746	1089.459527686480	693.427199670376	1054.613782309777	843.737671716708	704.272024939505	
108	6.018285714286	796.514137951441	996.823615803538	416.763150706680	989.151149323250	1422.073613068264	229.715149597292	1079.384332743734	1358.627818966211	399.717035385140	983.557796800141	1436.740466919795	564.632774764097	969.090612270147	1489.426147408844	383.739760544438	1021.405890889909	942.339108996689	547.162085478236	1022.578659424760	953.064231379216	272.478796649064	1100.386718531417	763.296072213460	523.591785226722	1052.541434509136	645.153125170009	595.383579654277	1141.343559160737	601.082913508083	517.731618640275	1155.797350742030	490.771904748966	546.456635799709	1070.940601797904	739.850268627676	320.757901370071	983.880050223126	618.454177650576	266.470339830178	1059.667273154528	543.886798321767	342.968996869339	1057.124214123086	471.665580033382	356.889831012254	1016.807340572422	400.496723979304	349.847950833084	916.497693953666	297.889995126081	296.058391040487	939.946644640433	184.533007405421	374.879183131117	1081.049560841269	416.484320367327	554.757103783601	956.188995643514	373.294830308292	604.445384596425	955.251355789382	259.740452550519	563.937004077556	764.821482270631	180.978712104556	516.180855828616	928.406135635829	140.525151899053	586.862707644617	815.754544321589	135.820281195064	603.391540213652	993.188896044786	36.961391104962	634.793401510496	790.250822741155	40.157407964939	410.175634226054	867.609026103166	36.727631783527	332.975010907070	951.583321423149	95.382442237685	364.532210662387	1079.637513399556	40.043701551150	339.301668981186	1078.874166004827	1089.312135353984	103.768168490168	1299.331237771009	948.144863125772	110.324788650648	944.773699906213	1092.006981629054	694.366759417847	1019.219334436119	840.952622933485	707.314702417684	
109	6.037428571429	796.025750053412	998.187174009006	414.963280161427	992.240213474591	1423.583679660699	230.753827223965	1079.715708227609	1359.515007825002	401.943133436478	981.521967904934	1437.301626727865	565.579617804127	970.001262131051	1490.521831303212	384.796047374702	1019.687436367159	943.671617586982	547.570756528682	1023.122925314325	953.890211348054	272.862979299312	1099.541962240849	765.760874349487	523.446052769249	1052.903754083801	647.503087153615	595.655629295377	1141.425896987742	603.991802360292	517.673161320408	1158.297376204647	495.485836975769	546.647617595723	1068.694350213459	739.312885762345	320.680448720572	979.792985009889	619.053109519767	265.779700428376	1054.292133285782	543.529671302657	342.251780868455	1050.886964172466	471.647190826536	356.161107993893	1010.709321127866	400.884115071417	349.092723352197	910.511976193289	298.196717069759	295.447495163947	934.060767895107	184.884757262746	374.447197082295	1087.628557916752	418.839414029890	555.632456264434	966.247877969299	368.594008551651	606.089331981882	971.981508774495	255.260098208230	565.760448805475	786.866794240109	163.629421910753	519.230044903498	953.101062598707	135.757055471969	589.276648813130	841.305377916882	122.821983496929	606.373600002528	1025.331901018053	37.799710362287	637.299754090967	784.506638132276	40.420629412170	410.062618544636	861.876169142188	36.798252955389	332.949560156789	945.897787124245	95.433508627662	364.328298168866	1073.909306902513	39.938235059906	339.231466053781	1085.652226817040	1093.401070267845	102.568526706996	1312.293458169259	962.322644262231	111.628930641114	925.628485545147	1095.517281742701	694.732236778671	984.755794597920	840.533350646973	709.423934550254	
110	6.056571428571	795.581367962168	999.689954864566	413.433712401779	995.384544116426	1425.077486016301	232.026940799612	1080.133407333824	1360.437858053820	404.338017792248	979.689454447628	1438.072937149706	566.636825402927	971.017325964646	1491.657133775838	386.019978535613	1017.941701078115	944.968548528451	548.282925792390	1023.664784158221	954.779564710987	273.566038331049	1098.073927758946	767.725804561795	523.818577036649	1052.100863047993	649.525478519705	596.402342414410	1140.270204843309	606.271158548618	518.209998341174	1159.396891463781	499.985267500996	547.348844154976	1066.146541818705	738.805069526267	320.843534309369	975.458259449203	619.820811822642	265.182734235915	1048.540498679588	543.276967052554	341.602998442121	1044.212840728412	471.770473326084	355.444425258507	1004.298029793502	401.425554592914	348.331028973831	904.283303435144	298.587959887017	294.844668896222	928.075597711839	185.323263421610	374.013905956040	1093.400986797823	421.078133309061	557.016536840039	976.427543590316	363.196462427696	608.420520167796	989.564878231478	250.568516258611	568.210173226764	811.247217301470	145.570569459111	522.983430331328	979.490978994658	130.787431721193	592.303016029991	869.108831754637	109.389397633801	609.988675442054	1059.151390075239	39.093025094536	640.302063456228	778.771834572503	40.706508312651	409.939539816418	856.141979505789	36.881736622296	332.926543910525	940.215293121481	95.501358079941	364.121344045212	1068.173837310058	39.841170353318	339.167496826059	1092.375394824960	1097.531229278441	101.631297119591	1324.533958203396	976.683446710223	113.299099782400	906.947917712920	1099.836539230103	694.493240855512	951.662307903267	842.115953020004	710.617894866886	
